<svg width="56" height="56" viewBox="0 0 56 56" fill="none" xmlns="http://www.w3.org/2000/svg">
<g id="transaction">
<rect width="56" height="56" rx="8" fill="#E3F0FF"/>
<path id="Vector" d="M28.9644 22.1053C28.9644 21.4948 28.4761 21 27.8735 21C27.271 21 26.7825 21.4948 26.7825 22.1053H28.9644ZM26.7825 33.8947C26.7825 34.5051 27.271 35 27.8735 35C28.4761 35 28.9644 34.5051 28.9644 33.8947H26.7825ZM29.3939 25.2436C29.7274 25.7519 30.4047 25.89 30.9063 25.5519C31.408 25.2139 31.5441 24.5278 31.2105 24.0195L29.3939 25.2436ZM26.2303 30.8671C25.809 30.4305 25.1184 30.4227 24.6876 30.8494C24.2568 31.2761 24.249 31.976 24.6702 32.4124L26.2303 30.8671ZM27.8735 26.7251C26.9511 26.7251 26.5482 26.5524 26.3888 26.4282C26.2938 26.354 26.1818 26.2224 26.1818 25.7927H24C24 26.676 24.2675 27.5632 25.0578 28.1798C25.7839 28.7461 26.7722 28.9356 27.8735 28.9356V26.7251ZM26.1818 25.7927C26.1818 25.2594 26.7575 24.5207 27.8735 24.5207V22.3102C25.9159 22.3102 24 23.7003 24 25.7927H26.1818ZM29.8182 30.2077C29.8182 30.7083 29.6429 30.9549 29.4026 31.122C29.1034 31.3301 28.5921 31.4798 27.8735 31.4798V33.6903C28.8314 33.6903 29.838 33.5004 30.6374 32.9444C31.4957 32.3474 32 31.4052 32 30.2077H29.8182ZM27.8735 28.9356C28.8064 28.9356 29.2759 29.1005 29.4982 29.2685C29.6493 29.3826 29.8182 29.5948 29.8182 30.2077H32C32 29.1225 31.6628 28.1462 30.8022 27.4961C30.0127 26.8999 28.9644 26.7251 27.8735 26.7251V28.9356ZM28.9644 23.4155V22.1053H26.7825V23.4155H28.9644ZM26.7825 32.5851V33.8947H28.9644V32.5851H26.7825ZM27.8735 24.5207C28.593 24.5207 29.1417 24.8595 29.3939 25.2436L31.2105 24.0195C30.51 22.9523 29.2403 22.3102 27.8735 22.3102V24.5207ZM27.8735 31.4798C27.1391 31.4798 26.5539 31.2025 26.2303 30.8671L24.6702 32.4124C25.4548 33.2254 26.6282 33.6903 27.8735 33.6903V31.4798Z" fill="#295497"/>
<path id="Vector_2" d="M17.6113 23.2498L14 23.0358C16.5886 16.3868 24.0207 12.5998 31.2668 14.4827C38.9846 16.4881 43.5687 24.1661 41.5058 31.632C39.7996 37.8071 34.0806 41.903 27.7871 42" stroke="#295497" stroke-width="1.8" stroke-linecap="round" stroke-linejoin="round"/>
<path id="Vector_3" d="M28 42C20.3 42 14 35.1818 14 27" stroke="#295497" stroke-width="1.8" stroke-linecap="round" stroke-linejoin="round" stroke-dasharray="1.17 7"/>
</g>
</svg>
