<svg width="145" height="15" viewBox="0 0 145 15" fill="none" xmlns="http://www.w3.org/2000/svg">
<path d="M0.632611 14V0.589999H5.78061C6.70461 0.589999 7.52061 0.751999 8.22861 1.076C8.94861 1.4 9.51261 1.88 9.92061 2.516C10.3286 3.152 10.5326 3.938 10.5326 4.874C10.5326 5.786 10.3226 6.56 9.90261 7.196C9.49461 7.832 8.93061 8.318 8.21061 8.654C7.50261 8.978 6.69261 9.14 5.78061 9.14H3.42261V14H0.632611ZM3.42261 6.71H5.79861C6.19461 6.71 6.53661 6.632 6.82461 6.476C7.11261 6.32 7.33461 6.104 7.49061 5.828C7.65861 5.552 7.74261 5.234 7.74261 4.874C7.74261 4.502 7.65861 4.178 7.49061 3.902C7.33461 3.626 7.11261 3.41 6.82461 3.254C6.53661 3.098 6.19461 3.02 5.79861 3.02H3.42261V6.71ZM16.6421 14V0.589999H19.4321V6.386H24.6521V0.589999H27.4421V14H24.6521V8.816H19.4321V14H16.6421ZM33.1557 14L37.6917 0.589999H41.3997L45.9357 14H42.8937L41.9937 11.264H37.0797L36.1797 14H33.1557ZM37.8537 8.834H41.2197L39.1677 2.498H39.9237L37.8537 8.834ZM51.6493 14V0.589999H56.7793C57.7033 0.589999 58.5193 0.751999 59.2273 1.076C59.9473 1.4 60.5113 1.88 60.9193 2.516C61.3273 3.152 61.5313 3.938 61.5313 4.874C61.5313 5.786 61.3213 6.566 60.9013 7.214C60.4813 7.85 59.9173 8.33 59.2093 8.654L62.2693 14H59.1373L55.8253 8.078L57.6253 9.14H54.4393V14H51.6493ZM54.4393 6.71H56.7973C57.1933 6.71 57.5353 6.632 57.8233 6.476C58.1113 6.32 58.3333 6.104 58.4893 5.828C58.6573 5.552 58.7413 5.234 58.7413 4.874C58.7413 4.502 58.6573 4.178 58.4893 3.902C58.3333 3.626 58.1113 3.41 57.8233 3.254C57.5353 3.098 57.1933 3.02 56.7973 3.02H54.4393V6.71ZM67.9751 14V0.589999H70.6751L75.6971 7.25H74.4371L79.3151 0.589999H82.0151V14H79.2251V3.668L80.3411 3.92L75.1751 10.58H74.8151L69.8291 3.92L70.7651 3.668V14H67.9751ZM87.7231 14L92.2591 0.589999H95.9671L100.503 14H97.4611L96.5611 11.264H91.6471L90.7471 14H87.7231ZM92.4211 8.834H95.7871L93.7351 2.498H94.4911L92.4211 8.834ZM112.044 14.216C111.084 14.216 110.19 14.042 109.362 13.694C108.546 13.346 107.832 12.86 107.22 12.236C106.608 11.612 106.128 10.88 105.78 10.04C105.444 9.2 105.276 8.282 105.276 7.286C105.276 6.29 105.444 5.372 105.78 4.532C106.116 3.68 106.59 2.948 107.202 2.336C107.814 1.712 108.528 1.232 109.344 0.895999C110.172 0.547999 111.072 0.373999 112.044 0.373999C113.016 0.373999 113.886 0.536 114.654 0.86C115.434 1.184 116.094 1.616 116.634 2.156C117.174 2.696 117.558 3.296 117.786 3.956L115.32 5.144C115.092 4.496 114.69 3.962 114.114 3.542C113.55 3.11 112.86 2.894 112.044 2.894C111.252 2.894 110.556 3.08 109.956 3.452C109.356 3.824 108.888 4.34 108.552 5C108.228 5.648 108.066 6.41 108.066 7.286C108.066 8.162 108.228 8.93 108.552 9.59C108.888 10.25 109.356 10.766 109.956 11.138C110.556 11.51 111.252 11.696 112.044 11.696C112.86 11.696 113.55 11.486 114.114 11.066C114.69 10.634 115.092 10.094 115.32 9.446L117.786 10.634C117.558 11.294 117.174 11.894 116.634 12.434C116.094 12.974 115.434 13.406 114.654 13.73C113.886 14.054 113.016 14.216 112.044 14.216ZM123.896 14V0.589999H126.686V14H123.896ZM133.384 14V0.589999H135.526L142.726 10.076L141.574 10.346V0.589999H144.364V14H142.204L135.13 4.442L136.174 4.172V14H133.384Z" fill="white"/>
</svg>
