<svg width="171" height="171" viewBox="0 0 171 171" fill="none" xmlns="http://www.w3.org/2000/svg">
<path fill-rule="evenodd" clip-rule="evenodd" d="M85.7058 159.43C126.423 159.43 159.431 126.422 159.431 85.7049C159.431 44.9875 126.423 11.9795 85.7058 11.9795C44.9884 11.9795 11.9805 44.9875 11.9805 85.7049C11.9805 126.422 44.9884 159.43 85.7058 159.43ZM110.335 64.8569C124.847 81.9147 142.982 90.3229 150.841 83.637C158.7 76.9511 153.307 57.703 138.795 40.6451C124.283 23.5872 106.147 15.1791 98.2886 21.865C90.4298 28.5509 95.8232 47.799 110.335 64.8569Z" fill="#D5FAD9" fill-opacity="0.3"/>
<path d="M80.9671 72.5793H84.3224C86.1021 72.5793 87.809 73.2863 89.0674 74.5448C90.3259 75.8033 91.0329 77.5101 91.0329 79.2899M91.0329 79.2899V82.6451M91.0329 79.2899C91.0329 78.4 91.3864 77.5466 92.0156 76.9173C92.6449 76.2881 93.4983 75.9346 94.3882 75.9346C96.1679 75.9346 97.8747 76.6416 99.1332 77.9001C100.392 79.1585 101.099 80.8654 101.099 82.6451M101.099 82.6451V86.0004M101.099 82.6451C101.099 80.887 102.676 79.5516 104.41 79.8401L105.558 80.0347C107.124 80.2959 108.547 81.1041 109.574 82.3156C110.6 83.5271 111.164 85.0634 111.164 86.6513V91.5936C111.164 98.8846 111.164 102.532 110.054 105.434C109.41 107.118 107.709 109.266 106.35 110.816C105.154 112.144 104.48 113.861 104.454 115.647V119.553M80.9671 79.2899V57.4806C80.9671 56.1458 80.4369 54.8657 79.493 53.9219C78.5492 52.978 77.269 52.4478 75.9342 52.4478C74.5994 52.4478 73.3193 52.978 72.3754 53.9219C71.4316 54.8657 70.9013 56.1458 70.9013 57.4806V83.2069C70.9013 86.0442 67.4689 87.4628 65.4658 85.4535V85.4535C64.9037 84.8889 64.2286 84.4497 63.4847 84.1646C62.7408 83.8796 61.945 83.7551 61.1496 83.7995C60.3542 83.8439 59.5772 84.056 58.8696 84.4221C58.162 84.7881 57.5399 85.2997 57.0441 85.9232C56.2598 86.9068 55.8235 88.1225 55.8035 89.3804C55.7834 90.6382 56.1808 91.8673 56.9334 92.8753L69.0123 108.303C71.3241 111.255 72.5789 115.805 72.5789 119.553M107.809 72.5793V52.4478M107.809 72.5793C105.461 72.5793 101.068 65.8889 99.4211 64.1912M107.809 72.5793C110.158 72.5793 114.55 65.8889 116.197 64.1912" stroke="#58BE62" stroke-width="3.6" stroke-linecap="round" stroke-linejoin="round"/>
<circle cx="85.7039" cy="85.7054" r="71.7254" stroke="#F9F9FC" stroke-width="4"/>
<path d="M134.334 139.684C134.412 138.582 133.583 137.625 132.482 137.546L114.528 136.259C113.426 136.18 112.469 137.01 112.39 138.111C112.311 139.213 113.14 140.17 114.242 140.249L130.201 141.393L129.057 157.352C128.978 158.454 129.807 159.411 130.909 159.49C132.011 159.569 132.968 158.74 133.047 157.638L134.334 139.684ZM37.6546 138.282L36.3054 139.759L37.6546 138.282ZM14.8577 93.0441L16.8471 92.838L14.8577 93.0441ZM27.8982 44.0938L26.275 42.9253L27.8982 44.0938ZM70.1795 16.1926L70.6154 18.1445L70.1795 16.1926ZM152.941 62.2055L151.053 62.8654L152.941 62.2055ZM149.707 112.082C149.287 113.103 149.773 114.272 150.794 114.693C151.816 115.114 152.985 114.627 153.406 113.606L149.707 112.082ZM131.029 138.029C118.205 149.138 101.748 155.15 84.7837 154.925L84.7305 158.924C102.675 159.163 120.083 152.803 133.648 141.053L131.029 138.029ZM84.7837 154.925C67.819 154.699 51.5278 148.251 39.0038 136.806L36.3054 139.759C49.5531 151.865 66.7856 158.686 84.7305 158.924L84.7837 154.925ZM39.0038 136.806C26.4798 125.36 18.5952 109.714 16.8471 92.838L12.8684 93.2501C14.7175 111.101 23.0577 127.652 36.3054 139.759L39.0038 136.806ZM16.8471 92.838C15.099 75.9621 19.6093 59.0318 29.5214 45.2622L26.275 42.9253C15.7902 57.4906 11.0193 75.3991 12.8684 93.2501L16.8471 92.838ZM29.5214 45.2622C39.4335 31.4926 54.0571 21.8425 70.6154 18.1445L69.7436 14.2407C52.2285 18.1524 36.7599 28.3601 26.275 42.9253L29.5214 45.2622ZM70.6154 18.1445C87.1737 14.4465 104.513 16.9581 119.342 25.2023L121.286 21.7063C105.6 12.9857 87.2586 10.329 69.7436 14.2407L70.6154 18.1445ZM119.342 25.2023C134.171 33.4465 145.455 46.8492 151.053 62.8654L154.829 61.5456C148.908 44.604 136.971 30.4268 121.286 21.7063L119.342 25.2023ZM151.053 62.8654C156.651 78.8815 156.172 96.3957 149.707 112.082L153.406 113.606C160.244 97.0134 160.75 78.4872 154.829 61.5456L151.053 62.8654Z" fill="#58BE62"/>
<path d="M42.3786 43.7261C50.4897 35.3542 60.8526 29.5115 72.214 26.9044" stroke="#58BE62" stroke-opacity="0.3" stroke-width="4" stroke-linecap="round"/>
<path d="M30.9888 60.2983C32.5678 56.8975 34.4605 53.6513 36.6422 50.6018" stroke="#58BE62" stroke-opacity="0.3" stroke-width="4" stroke-linecap="round"/>
</svg>
