<svg width="32" height="32" viewBox="0 0 32 32" fill="none" xmlns="http://www.w3.org/2000/svg">
<g id="streamline:pharmacy">
<path id="Vector" d="M16.9058 13.0209L21.4891 6.03897C21.817 5.53962 22.3344 5.18618 22.929 5.05545C23.5235 4.92472 24.1472 5.02726 24.6644 5.34079C25.7633 6.00707 26.0859 7.41846 25.379 8.47513L22.337 13.019M13 20.5301H19M16 18L16 23M5.439 18.8447L5.01215 15.1473C4.98171 14.8849 5.00861 14.6192 5.09109 14.3675C5.17357 14.1159 5.30977 13.884 5.49079 13.687C5.67181 13.49 5.89358 13.3324 6.14159 13.2244C6.3896 13.1164 6.65828 13.0605 6.93005 13.0603H25.0699C25.3417 13.0605 25.6104 13.1164 25.8584 13.2244C26.1064 13.3324 26.3282 13.49 26.5092 13.687C26.6902 13.884 26.8264 14.1159 26.9089 14.3675C26.9914 14.6192 27.0183 14.8849 26.9878 15.1473L26.561 18.8447C26.4265 20.0097 26.013 21.1279 25.3536 22.1096C24.6942 23.0914 23.8072 23.9093 22.7638 24.4978C23.0922 25.0702 23.3201 25.7084 23.4263 26.3897C23.4569 26.5893 23.4427 26.793 23.3849 26.9869C23.3271 27.1807 23.227 27.3602 23.0913 27.513C22.9557 27.6659 22.7877 27.7885 22.5989 27.8725C22.41 27.9566 22.2048 28 21.9971 28H10.0029C9.79524 28 9.58997 27.9566 9.40114 27.8725C9.2123 27.7885 9.04432 27.6659 8.90867 27.513C8.77302 27.3602 8.67288 27.1807 8.61507 26.9869C8.55726 26.793 8.54315 26.5893 8.57369 26.3897C8.67992 25.7084 8.90783 25.0702 9.23424 24.4978C8.19122 23.909 7.30465 23.091 6.64558 22.1093C5.98651 21.1277 5.57328 20.0096 5.439 18.8447Z" stroke="#ABABAB" stroke-width="1.8" stroke-linecap="round" stroke-linejoin="round"/>
</g>
</svg>
