<svg width="56" height="56" viewBox="0 0 56 56" fill="none" xmlns="http://www.w3.org/2000/svg">
<g id="fluent:people-20-regular">
<rect width="56" height="56" rx="8" fill="#D5FAD9"/>
<path id="Vector" d="M23.2857 21.2593C23.2857 20.11 23.7824 19.0078 24.6665 18.1951C25.5506 17.3825 26.7497 16.9259 28 16.9259C29.2503 16.9259 30.4494 17.3825 31.3335 18.1951C32.2176 19.0078 32.7143 20.11 32.7143 21.2593C32.7143 22.4085 32.2176 23.5107 31.3335 24.3234C30.4494 25.136 29.2503 25.5926 28 25.5926C26.7497 25.5926 25.5506 25.136 24.6665 24.3234C23.7824 23.5107 23.2857 22.4085 23.2857 21.2593ZM28 15C26.194 15 24.462 15.6595 23.1849 16.8333C21.9079 18.0071 21.1905 19.5992 21.1905 21.2593C21.1905 22.9193 21.9079 24.5114 23.1849 25.6852C24.462 26.8591 26.194 27.5185 28 27.5185C29.806 27.5185 31.538 26.8591 32.8151 25.6852C34.0921 24.5114 34.8095 22.9193 34.8095 21.2593C34.8095 19.5992 34.0921 18.0071 32.8151 16.8333C31.538 15.6595 29.806 15 28 15ZM17 33.2963C17 32.2747 17.4415 31.295 18.2274 30.5726C19.0132 29.8503 20.0791 29.4444 21.1905 29.4444H34.8095C35.9209 29.4444 36.9868 29.8503 37.7726 30.5726C38.5585 31.295 39 32.2747 39 33.2963V33.4581C39 33.4773 39 33.5024 38.9958 33.5351C38.9703 33.9164 38.9108 34.2952 38.8177 34.6676C38.6396 35.3763 38.2855 36.3239 37.571 37.2753C36.1023 39.2281 33.2653 41 28 41C22.7347 41 19.8977 39.2281 18.429 37.2753C17.6554 36.2396 17.1731 35.0439 17.0251 33.7951C17.0126 33.6831 17.0042 33.5706 17 33.4581V33.4157V33.2963ZM19.0952 33.4119V33.4465L19.1099 33.6064C19.2234 34.5296 19.5817 35.4131 20.1533 36.1794C21.1737 37.5353 23.313 39.0741 28 39.0741C32.687 39.0741 34.8263 37.5353 35.8467 36.1794C36.4184 35.4132 36.7767 34.5296 36.8901 33.6064C36.897 33.5533 36.9012 33.5 36.9027 33.4465L36.9048 33.4138V33.2963C36.9048 32.7855 36.684 32.2956 36.2911 31.9345C35.8981 31.5733 35.3652 31.3704 34.8095 31.3704H21.1905C20.6348 31.3704 20.1019 31.5733 19.7089 31.9345C19.316 32.2956 19.0952 32.7855 19.0952 33.2963V33.4119Z" fill="#58BE62"/>
</g>
</svg>
