<svg width="32" height="32" viewBox="0 0 32 32" fill="none" xmlns="http://www.w3.org/2000/svg">
<g id="fa6-solid:cash-register">
<g id="Group 325">
<path id="Vector" d="M13.9375 8.45897H13.0375V9.35897V10.6987V11.5987H13.9375H23.2617C24.1935 11.5987 24.9563 12.2596 25.0878 13.1134L25.0881 13.1148L26.0626 19.3728C26.0628 19.3736 26.0629 19.3744 26.063 19.3752C26.0873 19.5382 26.1 19.6934 26.1 19.8425V21.5385C26.1 21.7498 26.0505 21.8168 26.0387 21.8319C26.0213 21.8544 25.968 21.9087 25.8034 21.9633C25.4217 22.0901 24.8511 22.1001 24.0494 22.1H24.0494L24.0001 22.1H24H8H7.99993L7.95063 22.1H7.95059C7.14887 22.1001 6.5783 22.0901 6.19661 21.9633C6.03204 21.9087 5.97874 21.8544 5.96127 21.8319C5.94955 21.8168 5.9 21.7498 5.9 21.5385V19.8425C5.9 19.6926 5.91283 19.5377 5.93681 19.3806C5.93685 19.3803 5.93689 19.38 5.93693 19.3798L6.90742 13.1162C6.90747 13.1159 6.90752 13.1156 6.90757 13.1152C7.04283 12.259 7.80742 11.5987 8.73828 11.5987H11.1875H12.0875V10.6987V9.35897V8.45897H11.1875H7.75C7.46433 8.45897 7.275 8.24132 7.275 8.01923V5.33974C7.275 5.11765 7.46433 4.9 7.75 4.9H17.375C17.6607 4.9 17.85 5.11765 17.85 5.33974V8.01923C17.85 8.24132 17.6607 8.45897 17.375 8.45897H13.9375Z" stroke="#ABABAB" stroke-width="1.8"/>
</g>
<path id="Vector 1" d="M6 26L26 26" stroke="#ABABAB" stroke-width="1.8" stroke-linecap="round"/>
</g>
</svg>
