<svg width="42" height="42" viewBox="0 0 42 42" fill="none" xmlns="http://www.w3.org/2000/svg">
<g id="Group 278">
<circle id="Ellipse 1" cx="21" cy="21" r="21" fill="#EDEDED"/>
<g id="Vector">
<path d="M12 31C16.6633 26.1156 25.2865 25.8858 30 31H12ZM25.9903 16C25.9903 18.7613 23.7484 21 20.9831 21C18.2177 21 15.9759 18.7613 15.9759 16C15.9759 13.2386 18.2177 11 20.9831 11C23.7484 11 25.9903 13.2386 25.9903 16Z" fill="#EDEDED"/>
<path d="M12 31C16.6633 26.1156 25.2865 25.8858 30 31M25.9903 16C25.9903 18.7613 23.7484 21 20.9831 21C18.2177 21 15.9759 18.7613 15.9759 16C15.9759 13.2386 18.2177 11 20.9831 11C23.7484 11 25.9903 13.2386 25.9903 16Z" stroke="#8B8B8B" stroke-width="1.8" stroke-linecap="round" stroke-linejoin="round"/>
</g>
</g>
</svg>
