<svg width="84" height="84" viewBox="0 0 84 84" fill="none" xmlns="http://www.w3.org/2000/svg">
<g id="ph:info">
<path id="Vector" d="M42 7.875C35.2507 7.875 28.653 9.8764 23.0412 13.6261C17.4294 17.3758 13.0555 22.7054 10.4726 28.9409C7.88979 35.1765 7.214 42.0379 8.53072 48.6575C9.84744 55.2771 13.0975 61.3576 17.87 66.13C22.6425 70.9025 28.723 74.1526 35.3426 75.4693C41.9622 76.786 48.8236 76.1102 55.0591 73.5274C61.2946 70.9445 66.6242 66.5707 70.3739 60.9588C74.1236 55.347 76.125 48.7493 76.125 42C76.1155 32.9524 72.5171 24.2781 66.1195 17.8805C59.7219 11.4829 51.0476 7.88455 42 7.875ZM42 70.875C36.2891 70.875 30.7064 69.1815 25.9579 66.0087C21.2095 62.8359 17.5085 58.3262 15.323 53.05C13.1375 47.7738 12.5657 41.968 13.6798 36.3668C14.794 30.7656 17.5441 25.6205 21.5823 21.5823C25.6205 17.5441 30.7656 14.794 36.3668 13.6798C41.968 12.5657 47.7738 13.1375 53.05 15.323C58.3262 17.5085 62.8359 21.2094 66.0087 25.9579C69.1815 30.7064 70.875 36.2891 70.875 42C70.8663 49.6555 67.8214 56.9949 62.4081 62.4081C56.9949 67.8214 49.6555 70.8663 42 70.875ZM47.25 57.75C47.25 58.4462 46.9735 59.1139 46.4812 59.6062C45.9889 60.0984 45.3212 60.375 44.625 60.375C43.2326 60.375 41.8973 59.8219 40.9127 58.8373C39.9281 57.8527 39.375 56.5174 39.375 55.125V42C38.6788 42 38.0111 41.7234 37.5189 41.2312C37.0266 40.7389 36.75 40.0712 36.75 39.375C36.75 38.6788 37.0266 38.0111 37.5189 37.5188C38.0111 37.0266 38.6788 36.75 39.375 36.75C40.7674 36.75 42.1028 37.3031 43.0873 38.2877C44.0719 39.2723 44.625 40.6076 44.625 42V55.125C45.3212 55.125 45.9889 55.4016 46.4812 55.8938C46.9735 56.3861 47.25 57.0538 47.25 57.75ZM36.75 27.5625C36.75 26.7837 36.9809 26.0225 37.4136 25.3749C37.8463 24.7274 38.4612 24.2227 39.1807 23.9247C39.9002 23.6267 40.6919 23.5487 41.4557 23.7007C42.2195 23.8526 42.9211 24.2276 43.4717 24.7783C44.0224 25.3289 44.3974 26.0305 44.5494 26.7943C44.7013 27.5581 44.6233 28.3498 44.3253 29.0693C44.0273 29.7888 43.5226 30.4038 42.8751 30.8364C42.2276 31.2691 41.4663 31.5 40.6875 31.5C39.6432 31.5 38.6417 31.0852 37.9033 30.3467C37.1649 29.6083 36.75 28.6068 36.75 27.5625Z" fill="#ECD37A"/>
</g>
</svg>
