<svg width="56" height="56" viewBox="0 0 56 56" fill="none" xmlns="http://www.w3.org/2000/svg">
<g id="fluent:people-20-regular">
<rect width="56" height="56" rx="8" fill="#FFE3E3"/>
<g id="Group 319">
<path id="Vector" d="M22.9352 16.1111C21.6754 16.1111 20.4672 16.6116 19.5764 17.5024C18.6856 18.3932 18.1851 19.6013 18.1851 20.8611C18.1851 22.1209 18.6856 23.3291 19.5764 24.2199C20.4672 25.1107 21.6754 25.6111 22.9352 25.6111C24.1949 25.6111 25.4031 25.1107 26.2939 24.2199C27.1847 23.3291 27.6852 22.1209 27.6852 20.8611C27.6852 19.6013 27.1847 18.3932 26.2939 17.5024C25.4031 16.6116 24.1949 16.1111 22.9352 16.1111ZM16.074 20.8611C16.074 19.0414 16.7969 17.2963 18.0836 16.0096C19.3703 14.7229 21.1155 14 22.9352 14C24.7548 14 26.5 14.7229 27.7867 16.0096C29.0734 17.2963 29.7963 19.0414 29.7963 20.8611C29.7963 22.6808 29.0734 24.426 27.7867 25.7127C26.5 26.9994 24.7548 27.7222 22.9352 27.7222C21.1155 27.7222 19.3703 26.9994 18.0836 25.7127C16.7969 24.426 16.074 22.6808 16.074 20.8611ZM31.9142 31.6811C32.3158 31.2789 32.3044 30.6106 31.8044 30.3401C31.1924 30.0091 30.5029 29.8323 29.7963 29.8334H16.074C14.9542 29.8334 13.8803 30.2782 13.0885 31.07C12.2966 31.8618 11.8518 32.9358 11.8518 34.0556V34.2329C11.854 34.3564 11.8624 34.4797 11.8771 34.6024C12.0266 35.9705 12.5125 37.2804 13.2916 38.415C14.7715 40.5578 17.6299 42.5 22.9352 42.5C25.3984 42.5 27.3348 42.0807 28.8498 41.4176C29.4449 41.1571 29.5401 40.3882 29.0808 39.9289L28.6119 39.46C28.5089 39.3563 28.3515 39.324 28.2193 39.3866C26.9652 39.9799 25.2616 40.3889 22.9352 40.3889C18.2126 40.3889 16.0571 38.7021 15.029 37.2159C14.4531 36.3759 14.0921 35.4075 13.9777 34.3955C13.972 34.3372 13.9677 34.2788 13.965 34.2202L13.9629 34.1844V34.0556C13.9629 33.4957 14.1853 32.9587 14.5813 32.5628C14.9772 32.1669 15.5141 31.9445 16.074 31.9445H29.7963C29.9868 31.9445 30.1716 31.9697 30.3473 32.017C30.8495 32.1523 31.4385 32.1575 31.806 31.7895L31.9142 31.6811ZM39.2963 19.2778C38.4564 19.2778 37.651 19.6114 37.0571 20.2053C36.4632 20.7991 36.1296 21.6046 36.1296 22.4445C36.1296 23.2843 36.4632 24.0898 37.0571 24.6836C37.651 25.2775 38.4564 25.6111 39.2963 25.6111C40.1361 25.6111 40.9416 25.2775 41.5355 24.6836C42.1293 24.0898 42.463 23.2843 42.463 22.4445C42.463 21.6046 42.1293 20.7991 41.5355 20.2053C40.9416 19.6114 40.1361 19.2778 39.2963 19.2778ZM34.0185 22.4445C34.0185 21.0447 34.5745 19.7023 35.5643 18.7125C36.5541 17.7227 37.8965 17.1667 39.2963 17.1667C40.696 17.1667 42.0385 17.7227 43.0282 18.7125C44.018 19.7023 44.5741 21.0447 44.5741 22.4445C44.5741 23.8442 44.018 25.1866 43.0282 26.1764C42.0385 27.1662 40.696 27.7222 39.2963 27.7222C37.8965 27.7222 36.5541 27.1662 35.5643 26.1764C34.5745 25.1866 34.0185 23.8442 34.0185 22.4445Z" fill="#D85E5E"/>
<path id="Vector_2" d="M43.186 36.9253H34.8577" stroke="#D85E5E" stroke-width="1.8" stroke-linecap="round" stroke-linejoin="round"/>
</g>
</g>
</svg>
