<svg width="32" height="32" viewBox="0 0 32 32" fill="none" xmlns="http://www.w3.org/2000/svg">
<g id="maki:doctor">
<path id="Vector" d="M11.6956 15.0769C10.4272 15.0769 9.21075 14.5907 8.31384 13.7251C7.41692 12.8596 6.91304 11.6856 6.91304 10.4615V6.76923C6.91304 6.52442 7.01382 6.28963 7.1932 6.11652C7.37258 5.94341 7.61588 5.84615 7.86956 5.84615H8.82609C9.07977 5.84615 9.32307 5.7489 9.50245 5.57579C9.68183 5.40268 9.78261 5.16789 9.78261 4.92308C9.78261 4.67826 9.68183 4.44347 9.50245 4.27036C9.32307 4.09725 9.07977 4 8.82609 4H7.86956C7.10851 4 6.37862 4.29176 5.84048 4.81109C5.30233 5.33042 5 6.03479 5 6.76923V10.4615C5.00123 11.5044 5.26474 12.5313 5.7679 13.4542C6.27105 14.3771 6.99882 15.1684 7.88869 15.76C8.74366 16.4874 9.65145 16.7376 10.1414 17.7308C10.6313 18.7239 10.6931 20.4394 10.7391 21.5385C10.7391 23.2522 11.4446 24.8957 12.7002 26.1075C13.9559 27.3192 15.659 28 17.4348 28C19.2106 28 20.9136 27.3192 22.1693 26.1075C23.425 24.8957 24.1304 23.2522 24.1304 21.5385V20.4862C25.0321 20.2615 25.8179 19.7272 26.3406 18.9834C26.8632 18.2396 27.0868 17.3374 26.9695 16.4458C26.8522 15.5543 26.4019 14.7347 25.7032 14.1406C25.0044 13.5465 24.1052 13.2188 23.1739 13.2188C22.2427 13.2188 21.3434 13.5465 20.6446 14.1406C19.9459 14.7347 19.4957 15.5543 19.3783 16.4458C19.261 17.3374 19.4846 18.2396 20.0072 18.9834C20.5299 19.7272 21.3157 20.2615 22.2174 20.4862V21.5385C22.2174 22.7625 21.7135 23.9365 20.8166 24.802C19.9197 25.6676 18.7032 26.1538 17.4348 26.1538C16.1664 26.1538 14.9499 25.6676 14.053 24.802C13.1561 23.9365 12.6522 22.7625 12.6522 21.5385C12.7006 20.4381 12.7867 18.724 13.2799 17.7308C13.7732 16.7376 14.6633 16.4858 15.5217 15.76C16.4081 15.1663 17.1321 14.3742 17.6319 13.4514C18.1316 12.5286 18.3922 11.5027 18.3913 10.4615V6.76923C18.3913 6.03479 18.089 5.33042 17.5508 4.81109C17.0127 4.29176 16.2828 4 15.5217 4H14.5652C14.3115 4 14.0682 4.09725 13.8889 4.27036C13.7095 4.44347 13.6087 4.67826 13.6087 4.92308C13.6087 5.16789 13.7095 5.40268 13.8889 5.57579C14.0682 5.7489 14.3115 5.84615 14.5652 5.84615H15.5217C15.7754 5.84615 16.0187 5.94341 16.1981 6.11652C16.3775 6.28963 16.4783 6.52442 16.4783 6.76923V10.4615C16.4783 11.0676 16.3546 11.6678 16.1142 12.2278C15.8739 12.7877 15.5216 13.2965 15.0775 13.7251C14.6334 14.1537 14.1061 14.4937 13.5259 14.7256C12.9456 14.9575 12.3237 15.0769 11.6956 15.0769ZM23.1739 18.7692C22.6665 18.7692 22.1799 18.5747 21.8212 18.2285C21.4624 17.8823 21.2609 17.4127 21.2609 16.9231C21.2609 16.4334 21.4624 15.9639 21.8212 15.6176C22.1799 15.2714 22.6665 15.0769 23.1739 15.0769C23.6813 15.0769 24.1679 15.2714 24.5266 15.6176C24.8854 15.9639 25.0869 16.4334 25.0869 16.9231C25.0869 17.4127 24.8854 17.8823 24.5266 18.2285C24.1679 18.5747 23.6813 18.7692 23.1739 18.7692Z" fill="white"/>
</g>
</svg>
