<svg width="56" height="56" viewBox="0 0 56 56" fill="none" xmlns="http://www.w3.org/2000/svg">
<g id="fluent:people-20-regular">
<rect width="56" height="56" rx="8" fill="#E3F0FF"/>
<path id="Vector" d="M17.6471 22.7778C17.6471 21.7169 18.0933 20.6995 18.8875 19.9494C19.6818 19.1992 20.7591 18.7778 21.8824 18.7778C23.0056 18.7778 24.0829 19.1992 24.8772 19.9494C25.6714 20.6995 26.1176 21.7169 26.1176 22.7778C26.1176 23.8386 25.6714 24.8561 24.8772 25.6062C24.0829 26.3563 23.0056 26.7778 21.8824 26.7778C20.7591 26.7778 19.6818 26.3563 18.8875 25.6062C18.0933 24.8561 17.6471 23.8386 17.6471 22.7778ZM21.8824 17C20.2599 17 18.7038 17.6087 17.5565 18.6923C16.4092 19.7758 15.7647 21.2454 15.7647 22.7778C15.7647 24.3101 16.4092 25.7797 17.5565 26.8633C18.7038 27.9468 20.2599 28.5556 21.8824 28.5556C23.5049 28.5556 25.0609 27.9468 26.2082 26.8633C27.3555 25.7797 28 24.3101 28 22.7778C28 21.2454 27.3555 19.7758 26.2082 18.6923C25.0609 17.6087 23.5049 17 21.8824 17ZM32.5873 37.7022C33.6 38.0933 34.8744 38.3333 36.4706 38.3333C40.0113 38.3333 41.9689 37.1458 43.0005 35.784C43.5386 35.0694 43.8761 34.2375 43.9812 33.3662C43.9906 33.2853 43.9969 33.204 44 33.1227V33C44 32.6498 43.927 32.303 43.7851 31.9795C43.6432 31.656 43.4352 31.362 43.173 31.1144C42.9108 30.8668 42.5996 30.6703 42.257 30.5363C41.9144 30.4023 41.5473 30.3333 41.1765 30.3333H32.4612C32.9129 30.8489 33.2518 31.4516 33.4494 32.1111H41.1765C41.4261 32.1111 41.6655 32.2048 41.842 32.3715C42.0185 32.5382 42.1176 32.7643 42.1176 33V33.096L42.1082 33.1849C42.0361 33.7486 41.8162 34.2863 41.4682 34.7493C40.8527 35.5653 39.5162 36.5556 36.4706 36.5556C35.0927 36.5556 34.0649 36.3529 33.2951 36.056C33.1407 36.5538 32.9167 37.1156 32.5873 37.7022ZM12 33.8889C12 32.9459 12.3966 32.0415 13.1027 31.3747C13.8087 30.7079 14.7662 30.3333 15.7647 30.3333H28C28.9985 30.3333 29.956 30.7079 30.662 31.3747C31.3681 32.0415 31.7647 32.9459 31.7647 33.8889V34.0382C31.7647 34.056 31.7647 34.0791 31.7609 34.1093C31.738 34.4613 31.6845 34.811 31.6009 35.1547C31.4409 35.8089 31.1228 36.6836 30.4809 37.5618C29.1614 39.3644 26.6127 41 21.8824 41C17.152 41 14.6033 39.3644 13.2838 37.5618C12.5888 36.6058 12.1555 35.5021 12.0226 34.3493C12.0113 34.2459 12.0038 34.1421 12 34.0382V33.9991V33.8889ZM13.8824 33.9956V34.0276L13.8955 34.1751C13.9975 35.0273 14.3194 35.8429 14.8329 36.5502C15.7496 37.8018 17.6715 39.2222 21.8824 39.2222C26.0932 39.2222 28.0151 37.8018 28.9318 36.5502C29.4454 35.843 29.7673 35.0274 29.8692 34.1751C29.8754 34.1261 29.8791 34.0769 29.8805 34.0276L29.8824 33.9973V33.8889C29.8824 33.4174 29.684 32.9652 29.331 32.6318C28.978 32.2984 28.4992 32.1111 28 32.1111H15.7647C15.2655 32.1111 14.7867 32.2984 14.4337 32.6318C14.0807 32.9652 13.8824 33.4174 13.8824 33.8889V33.9956ZM33.6471 24.1111C33.6471 23.4039 33.9445 22.7256 34.4741 22.2255C35.0036 21.7254 35.7217 21.4444 36.4706 21.4444C37.2194 21.4444 37.9376 21.7254 38.4671 22.2255C38.9966 22.7256 39.2941 23.4039 39.2941 24.1111C39.2941 24.8184 38.9966 25.4966 38.4671 25.9967C37.9376 26.4968 37.2194 26.7778 36.4706 26.7778C35.7217 26.7778 35.0036 26.4968 34.4741 25.9967C33.9445 25.4966 33.6471 24.8184 33.6471 24.1111ZM36.4706 19.6667C35.2225 19.6667 34.0256 20.1349 33.143 20.9684C32.2605 21.8019 31.7647 22.9324 31.7647 24.1111C31.7647 25.2899 32.2605 26.4203 33.143 27.2538C34.0256 28.0873 35.2225 28.5556 36.4706 28.5556C37.7187 28.5556 38.9156 28.0873 39.7981 27.2538C40.6807 26.4203 41.1765 25.2899 41.1765 24.1111C41.1765 22.9324 40.6807 21.8019 39.7981 20.9684C38.9156 20.1349 37.7187 19.6667 36.4706 19.6667Z" fill="#295497"/>
</g>
</svg>
