<svg width="32" height="32" viewBox="0 0 32 32" fill="none" xmlns="http://www.w3.org/2000/svg">
<g id="arrow-turn-backward-round">
<path id="Vector" d="M28.5969 10.9335C28.6666 12.3337 28.6666 13.9994 28.6666 16.0002C28.6666 21.9712 28.6666 24.9568 26.8117 26.8119C24.9566 28.6668 21.971 28.6668 15.9999 28.6668C10.0288 28.6668 7.04324 28.6668 5.18824 26.8119C3.33325 24.9568 3.33325 21.9712 3.33325 16.0002C3.33325 10.029 3.33325 7.04348 5.18824 5.18848C7.04324 3.3335 10.0288 3.3335 15.9999 3.3335C17.4291 3.3335 18.6874 3.3335 19.7999 3.35894" stroke="#58BE62" stroke-width="2" stroke-linecap="round"/>
<path id="Vector_2" d="M10.6667 15.3335C10.6667 15.3335 12.6667 15.3335 15.3334 20.0002C15.3334 20.0002 22.0785 7.77794 28.6667 5.3335" stroke="#58BE62" stroke-width="2" stroke-linecap="round" stroke-linejoin="round"/>
</g>
</svg>
