<svg width="32" height="32" viewBox="0 0 32 32" fill="none" xmlns="http://www.w3.org/2000/svg">
<rect width="32" height="32" fill="#1E1E1E"/>
<g id="Login">
<g clip-path="url(#clip0_528_2883)">
<rect x="-717" y="-410" width="1194" height="834" rx="12" fill="#58BE62"/>
<g id="Rectangle 134" filter="url(#filter0_d_528_2883)">
<rect x="-362" y="-251" width="484" height="574" rx="10" fill="white"/>
</g>
<g id="Frame 229">
<g id="Group 239">
<g id="Group 236">
<rect id="Rectangle 117" x="-279.5" y="-2.5" width="319" height="37" rx="9.5" stroke="#ECECF5"/>
<g id="eye">
<path id="Vector" d="M7 12C7 12 11.0294 8 16 8C20.9705 8 25 12 25 12" stroke="#ABABAB" stroke-width="1.8" stroke-linecap="round"/>
<path id="Vector_2" d="M24.5896 16.6132C24.8632 17.0091 25 17.207 25 17.5C25 17.793 24.8632 17.9909 24.5896 18.3868C23.3601 20.1656 20.2203 24 16 24C11.7797 24 8.63989 20.1656 7.41044 18.3868C7.13681 17.9909 7 17.793 7 17.5C7 17.207 7.13681 17.0091 7.41044 16.6132C8.63989 14.8344 11.7797 11 16 11C20.2203 11 23.3601 14.8344 24.5896 16.6132Z" stroke="#ABABAB" stroke-width="1.8"/>
<path id="Vector_3" d="M18 18C18 16.8954 17.1046 16 16 16C14.8954 16 14 16.8954 14 18C14 19.1046 14.8954 20 16 20C17.1046 20 18 19.1046 18 18Z" stroke="#ABABAB" stroke-width="1.8"/>
</g>
</g>
</g>
</g>
</g>
</g>
<defs>
<filter id="filter0_d_528_2883" x="-380" y="-269" width="524" height="614" filterUnits="userSpaceOnUse" color-interpolation-filters="sRGB">
<feFlood flood-opacity="0" result="BackgroundImageFix"/>
<feColorMatrix in="SourceAlpha" type="matrix" values="0 0 0 0 0 0 0 0 0 0 0 0 0 0 0 0 0 0 127 0" result="hardAlpha"/>
<feOffset dx="2" dy="2"/>
<feGaussianBlur stdDeviation="10"/>
<feComposite in2="hardAlpha" operator="out"/>
<feColorMatrix type="matrix" values="0 0 0 0 0 0 0 0 0 0 0 0 0 0 0 0 0 0 0.15 0"/>
<feBlend mode="normal" in2="BackgroundImageFix" result="effect1_dropShadow_528_2883"/>
<feBlend mode="normal" in="SourceGraphic" in2="effect1_dropShadow_528_2883" result="shape"/>
</filter>
<clipPath id="clip0_528_2883">
<rect x="-717" y="-410" width="1194" height="834" rx="12" fill="white"/>
</clipPath>
</defs>
</svg>
