<svg width="56" height="56" viewBox="0 0 56 56" fill="none" xmlns="http://www.w3.org/2000/svg">
<g id="money-add-02">
<rect width="56" height="56" rx="8" fill="#D5FAD9"/>
<path id="Vector" d="M28 38.4706C25.868 39.4225 23.0673 40 20 40C18.2945 40 16.6715 39.8215 15.2 39.4993C14.2541 39.2922 13.7811 39.1886 13.2144 38.76C12.8911 38.5156 12.4877 38.0315 12.3106 37.6758C12 37.0521 12 36.4472 12 35.2374V18.7625C12 17.2563 13.664 16.2218 15.2 16.5581C16.6715 16.8803 18.2945 17.0588 20 17.0588C23.0673 17.0588 25.868 16.4813 28 15.5294C30.132 14.5776 32.9326 14 36 14C37.7054 14 39.3285 14.1786 40.8 14.5007C41.7459 14.7078 42.2189 14.8114 42.7856 15.24C43.1088 15.4845 43.5123 15.9684 43.6894 16.3242C44 16.948 44 17.5528 44 18.7625V27" stroke="#58BE62" stroke-width="2" stroke-linecap="round"/>
<path id="Vector_2" d="M38.5 42V31M33 36.5H44" stroke="#58BE62" stroke-width="2.2" stroke-linecap="round"/>
<path id="Vector_3" d="M33 27C33 29.7614 30.7614 32 28 32C25.2386 32 23 29.7614 23 27C23 24.2386 25.2386 22 28 22C30.7614 22 33 24.2386 33 27Z" stroke="#58BE62" stroke-linejoin="round"/>
<path id="Vector_4" d="M32 27C32 29.2091 30.2091 31 28 31C25.7909 31 24 29.2091 24 27C24 24.7909 25.7909 23 28 23C30.2091 23 32 24.7909 32 27Z" stroke="#58BE62"/>
</g>
</svg>
