<svg width="32" height="32" viewBox="0 0 32 32" fill="none" xmlns="http://www.w3.org/2000/svg">
<g id="edit-02">
<rect width="32" height="32" rx="8" fill="#ECD37A"/>
<path id="Vector" d="M17.659 9.50836C18.2551 8.86246 18.5532 8.53952 18.8699 8.35114C19.6342 7.89661 20.5753 7.88247 21.3523 8.31386C21.6743 8.49264 21.9815 8.8065 22.596 9.43421C23.2105 10.0619 23.5178 10.3758 23.6927 10.7047C24.1151 11.4985 24.1012 12.4598 23.6563 13.2406C23.4719 13.5641 23.1557 13.8686 22.5235 14.4776L15.0005 21.7234C13.8023 22.8775 13.2032 23.4546 12.4545 23.747C11.7057 24.0394 10.8826 24.0179 9.23629 23.9749L9.01231 23.969C8.51113 23.9559 8.26054 23.9494 8.11487 23.784C7.9692 23.6187 7.98909 23.3634 8.02886 22.853L8.05047 22.5758C8.16241 21.1388 8.21838 20.4204 8.49897 19.7746C8.77955 19.1287 9.26355 18.6044 10.2315 17.5556L17.659 9.50836Z" stroke="white" stroke-width="1.8" stroke-linejoin="round"/>
<path id="Vector_2" d="M17 10L22 15" stroke="white" stroke-width="1.8" stroke-linejoin="round"/>
<path id="Vector_3" d="M18 24H24" stroke="white" stroke-width="1.8" stroke-linecap="round" stroke-linejoin="round"/>
</g>
</svg>
